Coordinates
version=1
nRows=4
nColumns=63
inDegrees=yes

Units are S.I. units (second, meters, Newtons, ...)
If the header above contains a line with 'inDegrees', this indicates whether rotational values are in degrees (yes) or radians (no).

endheader
time	pelvis_tilt	pelvis_list	pelvis_rotation	pelvis_tx	pelvis_ty	pelvis_tz	hip_flexion_r	hip_adduction_r	hip_rotation_r	knee_angle_r	knee_angle_r_beta	ankle_angle_r	subtalar_angle_r	mtp_angle_r	hip_flexion_l	hip_adduction_l	hip_rotation_l	knee_angle_l	knee_angle_l_beta	ankle_angle_l	subtalar_angle_l	mtp_angle_l	L5_S1_Flex_Ext	L5_S1_Lat_Bending	L5_S1_axial_rotation	L4_L5_Flex_Ext	L4_L5_Lat_Bending	L4_L5_axial_rotation	L3_L4_Flex_Ext	L3_L4_Lat_Bending	L3_L4_axial_rotation	L2_L3_Flex_Ext	L2_L3_Lat_Bending	L2_L3_axial_rotation	L1_L2_Flex_Ext	L1_L2_Lat_Bending	L1_L2_axial_rotation	L1_T12_Flex_Ext	L1_T12_Lat_Bending	L1_T12_axial_rotation	Abs_r3	Abs_r2	Abs_r1	Abs_t1	Abs_t2	neck_flexion	neck_bending	neck_rotation	arm_flex_r	arm_add_r	arm_rot_r	elbow_flex_r	pro_sup_r	wrist_flex_r	wrist_dev_r	arm_flex_l	arm_add_l	arm_rot_l	elbow_flex_l	pro_sup_l	wrist_flex_l	wrist_dev_l
      1.08474576	      1.97509936	     -4.52908265	     87.03762752	      0.30204612	      0.77553032	      0.65924275	     -1.96995403	      1.80871300	     15.05436245	      2.51066779	      0.04381942	     18.77744843	     -6.05383986	      0.00000000	     -2.53753439	     -5.16612764	     -0.25876495	      2.79845099	      0.04884218	     22.65537009	     -0.66356591	      0.00000000	     -0.02203091	      0.88796079	      3.04649672	     -0.04091360	      1.18098785	      3.23690277	     -0.03619458	      2.15898786	      3.23690277	     -0.02517912	      2.15898786	      2.66568463	     -0.02045790	      1.81072964	      2.47527859	     -0.01258846	      1.37545126	      2.28487254	     -0.15736456	     10.04479001	     16.94370083	      0.00000000	      0.00000000	     25.35896457	    -10.09285757	      0.63479730	      6.40906622	    -15.13024375	     96.19019402	     10.45113948	      3.81412464	      5.82475879	     -5.36398798	      9.16346138	    -10.99649881	     32.56529754	     76.10473502	     88.46399655	     -8.56419477	     16.93168878
      1.10169492	      1.88687710	     -4.24505390	     87.06103055	      0.30277027	      0.77573867	      0.65732578	     -2.49022377	      1.75367593	     15.58852611	      2.32537146	      0.04058539	     18.69756064	     -6.85109078	      0.00000000	     -3.02099406	     -5.09339660	     -0.38089059	      2.69564244	      0.04704784	     22.62536748	     -0.48452574	      0.00000000	     -0.03522813	      0.86221406	      3.08531601	     -0.06542217	      1.14674470	      3.27814826	     -0.05787630	      2.09638727	      3.27814826	     -0.04026223	      2.09638727	      2.69965151	     -0.03271284	      1.75822692	      2.50681926	     -0.02012935	      1.33556958	      2.31398701	     -0.25163103	      9.75353792	     17.15960205	      0.00000000	      0.00000000	     24.56685782	     -9.74638751	      0.43432216	      6.14419823	    -14.78324302	     96.87580136	     10.15126204	      3.62957005	      5.92217337	     -5.66438494	      7.43402691	    -11.20583072	     29.28880864	     83.20983686	     88.39873593	     -5.49015788	     17.62474708
      1.11864407	      1.92650449	     -3.91219773	     87.12058930	      0.30369068	      0.77603124	      0.65550301	     -3.03366862	      1.84551750	     15.60356174	      2.22322229	      0.03880255	     18.81883277	     -6.89985841	      0.00000000	     -3.52759913	     -5.17211332	     -0.36457976	      2.65652621	      0.04636513	     22.58174949	     -0.47275433	      0.00000000	     -0.05461674	      0.84723675	      3.16112147	     -0.10142875	      1.12682487	      3.35869156	     -0.08972984	      2.05997142	      3.35869156	     -0.06242147	      2.05997142	      2.76598128	     -0.05071711	      1.72768517	      2.56841119	     -0.03120801	      1.31236972	      2.37084110	     -0.39012192	      9.58411152	     17.58120926	      0.00000000	      0.00000000	     23.69097635	     -9.57044337	     -0.18475941	      5.77046594	    -14.50800400	     96.81360357	      9.96088252	      3.53111664	      6.02909521	     -5.83385676	      6.36487846	    -11.72765121	     27.87154509	     89.95976690	     87.94934468	     -4.96192418	     16.52361176
      1.13559322	      1.72492197	     -3.79592928	     87.38641964	      0.30388365	      0.77594947	      0.65318056	     -3.44911068	      1.67340755	     15.68069079	      1.99844532	      0.03487945	     18.75555001	     -7.54256457	      0.00000000	     -3.87697891	     -4.98356137	     -0.01838461	      2.39267115	      0.04175999	     22.24308463	     -0.54600369	      0.00000000	     -0.03827020	      0.80021436	      2.98553656	     -0.07107158	      1.06428509	      3.17213260	     -0.06287410	      1.94564119	      3.17213260	     -0.04373901	      1.94564119	      2.61234449	     -0.03553770	      1.63179711	      2.42574846	     -0.02186759	      1.23953204	      2.23915242	     -0.27336018	      9.05218484	     16.60465870	      0.00000000	      0.00000000	     22.99254755	     -9.44407006	     -1.10465926	      5.98079579	    -14.09907753	     98.27047044	      9.95568046	      3.83455527	      5.78793708	     -5.12261136	      3.99814723	    -11.38415810	     23.60543047	     97.28309861	     86.92362569	     -2.14779509	     17.51787059
